# xmcd CD database file
# Generated: Wed Dec 25 23:11:46 2002 by KSCD
# 
# Track frame offsets:
#       150
#       13270
#       26522
#       37940
#       52460
#       66450
#       80922
#       93290
#       104195
#       115847
#       128077
#       142772
#
# Disc length: 2066 seconds
#
# Revision: 3
# Processed by: cddbd v1.4PL0 Copyright (c) Steve Scherf et al.
# Submitted via: Kscd 1.3.3
#
DISCID=ac08100c
DTITLE=Big Bill Broonzy and Washboard Sam - Big Bill Broonzy and Washboard Sa
DTITLE=m
DYEAR=1900
DGENRE=
TTITLE0=Little City Woman
TTITLE1=Lonesome
TTITLE2=Jacqueline
TTITLE3=Romance Without Finance
TTITLE4=By Myself
TTITLE5=Shirt Tail
TTITLE6=Diggin' My Potatoes
TTITLE7=Bright Eyes
TTITLE8=Minding My Own Business
TTITLE9=Never, Never
TTITLE10=Horse Shoe Over My Door
TTITLE11=I'm A Lonely Man
EXTD=
EXTT0=
EXTT1=
EXTT2=
EXTT3=
EXTT4=
EXTT5=
EXTT6=
EXTT7=
EXTT8=
EXTT9=
EXTT10=
EXTT11=
PLAYORDER=
